<?xml version="1.0" encoding="iso-8859-1"?>
<!-- Generator: Adobe Illustrator 19.0.0, SVG Export Plug-In . SVG Version: 6.00 Build 0)  -->
<svg xmlns="http://www.w3.org/2000/svg" xmlns:xlink="http://www.w3.org/1999/xlink" version="1.1" id="Layer_1" x="0px" y="0px" viewBox="0 0 512 512" style="enable-background:new 0 0 512 512;" xml:space="preserve" width="512px" height="512px">
<g>
	<g>
		<g>
			<path d="M256,0C114.841,0,0,114.841,0,256c0,1.547,0.031,3.086,0.059,4.627h128.713v-40.463h-16.193     c-8.517,0-15.422-6.904-15.422-15.422v-51.255c0-7.205,4.989-13.451,12.017-15.041l143.422-32.466     c2.241-0.507,4.568-0.507,6.81,0l143.422,32.466c7.028,1.591,12.017,7.836,12.017,15.041v51.255     c0,8.517-6.906,15.422-15.422,15.422h-16.193v40.463h128.712c0.028-1.541,0.059-3.08,0.059-4.627C512,114.841,397.159,0,256,0z" fill="#12E083"/>
			<rect x="293.783" y="220.16" width="13.88" height="90.624" fill="#12E083"/>
			<rect x="338.506" y="220.16" width="13.88" height="90.624" fill="#12E083"/>
			<path d="M383.229,310.787h16.193c8.516,0,15.422,6.904,15.422,15.422c0,8.517-6.906,15.422-15.422,15.422H112.578     c-8.517,0-15.422-6.904-15.422-15.422c0-8.517,6.904-15.422,15.422-15.422h16.193V291.47H2.469C19.792,415.9,126.876,512,256,512     s236.208-96.1,253.531-220.53H383.229V310.787z M441.06,366.305c0,8.517-6.906,15.422-15.422,15.422H86.361     c-8.517,0-15.422-6.904-15.422-15.422s6.904-15.422,15.422-15.422h339.277C434.154,350.883,441.06,357.788,441.06,366.305z" fill="#12E083"/>
			<rect x="159.614" y="220.16" width="13.88" height="90.624" fill="#12E083"/>
			<rect x="249.06" y="220.16" width="13.88" height="90.624" fill="#12E083"/>
			<rect x="204.337" y="220.16" width="13.88" height="90.624" fill="#12E083"/>
			<polygon points="384,165.806 256,136.832 128,165.806 128,189.32 384,189.32    " fill="#12E083"/>
		</g>
	</g>
</g>
<g>
</g>
<g>
</g>
<g>
</g>
<g>
</g>
<g>
</g>
<g>
</g>
<g>
</g>
<g>
</g>
<g>
</g>
<g>
</g>
<g>
</g>
<g>
</g>
<g>
</g>
<g>
</g>
<g>
</g>
</svg>
